<svg xmlns="http://www.w3.org/2000/svg" viewBox="0 0 512 512">
  <defs>
    <radialGradient id="grad" cx="50%" cy="50%" r="50%">
      <stop offset="0%" style="stop-color:#fbbf24;stop-opacity:1" />
      <stop offset="100%" style="stop-color:#d97706;stop-opacity:1" />
    </radialGradient>
  </defs>
  <rect width="512" height="512" rx="100" fill="#0f172a"/>
  <!-- Brain/Mind Shell -->
  <path d="M256 120c-60 0-100 40-100 80 0 20 10 40 30 50-10 10-20 30-20 50s40 60 90 60 90-40 90-60-10-40-20-50c20-10 30-30 30-50 0-40-40-80-100-80z" fill="none" stroke="url(#grad)" stroke-width="15" opacity="0.4"/>
  <!-- Heart -->
  <path d="M256 360c-40-40-80-70-80-110 0-25 20-45 45-45 15 0 30 10 35 25 5-15 20-25 35-25 25 0 45 20 45 45 0 40-40 70-80 110z" fill="url(#grad)" opacity="0.8"/>
  <!-- Cross -->
  <rect x="246" y="220" width="20" height="100" rx="5" fill="white" opacity="0.9"/>
  <rect x="216" y="245" width="80" height="20" rx="5" fill="white" opacity="0.9"/>
</svg>
